<svg xmlns="http://www.w3.org/2000/svg" viewBox="0 0 411.37 118.96"><defs><style>.cls-1{fill:#e3000f;}.cls-1,.cls-2{fill-rule:evenodd;}.cls-2{fill:#1a1a18;}</style></defs><title>Varlık 1</title><g id="katman_2" data-name="katman 2"><g id="katman_1-2" data-name="katman 1"><path class="cls-1" d="M0,94.28H16.45c3.24,0,4-3.56,5.55-5.91,2.26,1,.82,5.91,5.09,5.91,2.08,0,5.08-.56,6.88.16.57,1.62,2.8,17.84,3.3,21.34.18,1.25.13,3.56,1.74,3.12,1.07-.29.93-2.41,1.05-3.79.67-7.84.94-15.7,1.69-23.47.3-3.08.49-6.32.64-9.4.09-1.74.4-8.13.71-9.32l.17.33a16.94,16.94,0,0,1,.4,3.31l1,11.92c.37,5.33,1,10.49,1.26,15.73.07,1.28.34,6.89.84,7.52.94,1.21,1.8,0,2.1-1.11s.61-2,.95-3.29c.56-2.13,1.24-4.39,1.88-6.42s1.17-4.67,1.94-6.54c4.34-.19,6.43.09,8.81-4.86.58-1.22,2.66-6.66,3.78-7.32,2.54,1.89,2.67,12.09,9.29,12.09h66.72V91.92L76.84,92c-2.3,0-2.9.16-4-1.37-2.35-3.3-4.61-14.89-8.8-9.6-2.05,2.58-3,7.93-5.6,10.29-1.26,1.14-3,.72-4.83.73-2,0-1.82.46-2.31,2.13-.7,2.36-2.25,8.92-3.1,10.31C47.23,96,46.87,87,46.07,78.51L44.54,59.22c-.08-1-.16-2.25-.28-3.27-.14-1.18-1.14-1.83-1.92-.89-.64.77-2.57,33.4-3,39-.34,4.27-.48,9-1,13.12-.66-1.28-1.69-10.23-2-12.76-.39-3-1.06-2.41-5.55-2.42H26.51c-1.31-1.56-2.05-7.35-5.26-5.85-1.77.83-2.37,3.45-3.42,5-.7,1.05-.95.85-2.16.85L0,92Z"/><path class="cls-1" d="M411.37,94.28H394.92c-3.25,0-4-3.56-5.56-5.91-2.25,1-.81,5.91-5.08,5.91-2.08,0-5.09-.56-6.88.16-.57,1.62-2.8,17.84-3.3,21.34-.18,1.25-.13,3.56-1.74,3.12-1.08-.29-.93-2.41-1.05-3.79-.67-7.84-.94-15.7-1.7-23.47-.3-3.08-.48-6.32-.63-9.4-.09-1.74-.41-8.13-.71-9.32l-.17.33a16.94,16.94,0,0,0-.4,3.31l-1,11.92c-.37,5.33-1,10.49-1.26,15.73-.07,1.28-.34,6.89-.84,7.52-.94,1.21-1.8,0-2.1-1.11s-.61-2-.95-3.29c-.56-2.13-1.24-4.39-1.88-6.42s-1.17-4.67-1.94-6.54c-4.34-.19-6.43.09-8.81-4.86-.58-1.22-2.66-6.66-3.78-7.32-2.54,1.89-2.67,12.09-9.29,12.09H273.64V91.92l60.88,0c2.29,0,2.9.16,4-1.37,2.36-3.3,4.62-14.89,8.81-9.6,2.05,2.58,3,7.93,5.6,10.29,1.26,1.14,3,.72,4.83.73,2,0,1.82.46,2.31,2.13.7,2.36,2.25,8.92,3.1,10.31,1-8.49,1.33-17.45,2.13-25.93l1.53-19.29c.08-1,.16-2.25.28-3.27.14-1.18,1.14-1.83,1.92-.89.64.77,2.57,33.4,3,39,.33,4.27.48,9,1,13.12.65-1.28,1.69-10.23,2-12.76.4-3,1.07-2.41,5.56-2.42h4.26c1.31-1.56,2.05-7.35,5.26-5.85,1.77.83,2.37,3.45,3.42,5,.7,1.05.95.85,2.16.85l15.67,0Z"/><path class="cls-2" d="M339.09,58.58q0,12-6.6,18.14t-18.4,6.13H273.63V68.34h43.09a7.69,7.69,0,0,0,6.1-2.9,10.7,10.7,0,0,0,2.45-7.13,10.57,10.57,0,0,0-2.45-6.92,7.61,7.61,0,0,0-6.1-3H294.48a27.67,27.67,0,0,1-11.62-2.18,22.29,22.29,0,0,1-7.66-5.6,21.18,21.18,0,0,1-4.27-7.72,28.83,28.83,0,0,1-1.32-8.51A31.55,31.55,0,0,1,271,15,20.22,20.22,0,0,1,283.11,1.91,30.32,30.32,0,0,1,294.48,0h39.33V14.51H292.35a8.21,8.21,0,0,0-6.28,2.9,9.71,9.71,0,0,0-2.64,6.73A10,10,0,0,0,286,31.07a8.39,8.39,0,0,0,6.47,2.84h21.87q11.43,0,18.09,6.13t6.66,18ZM126,25.07a8.55,8.55,0,0,0,3.27-2.58A5.62,5.62,0,0,0,130.51,19a4.42,4.42,0,0,0-1.25-3.17,5.17,5.17,0,0,0-3.9-1.32H72.72V0H125q9.54,0,14.32,5.28T144.08,19a38.3,38.3,0,0,1-.25,4,16.36,16.36,0,0,1-1.44,5,18.81,18.81,0,0,1-3.77,5.28A23.79,23.79,0,0,1,131.39,38L88,57.79Q83.53,60,83.52,63.72A4.09,4.09,0,0,0,85,67.15a5.65,5.65,0,0,0,3.64,1.19H142.2V82.85H89.05q-9.55,0-14.39-5.27T69.83,64a28,28,0,0,1,.44-4.82A16.79,16.79,0,0,1,72.09,54a19.63,19.63,0,0,1,3.89-5,24.21,24.21,0,0,1,6.54-4.22Z"/><path class="cls-1" d="M259.78,39.39a27.65,27.65,0,0,1-1.52,9.46,19.28,19.28,0,0,1-12.11,12,31.39,31.39,0,0,1-10.67,1.65A30.09,30.09,0,0,1,225,60.78a21.6,21.6,0,0,1-7.67-4.71,19.84,19.84,0,0,1-4.71-7.22A26,26,0,0,1,211,39.48V1.54h10.17V39.29a11.66,11.66,0,0,0,3.83,9q3.84,3.49,10.58,3.49h.28q6.93,0,10.35-3.49a12.34,12.34,0,0,0,3.42-9V1.54h10.16ZM201.41,12.22H170.92a6,6,0,0,0-4.62,2.13,7.11,7.11,0,0,0-1.94,5,7.39,7.39,0,0,0,1.84,5.09A6.12,6.12,0,0,0,171,26.48h30.4V37.15H170.92a6,6,0,0,0-4.62,2.14,7.09,7.09,0,0,0-1.94,5,8,8,0,0,0,1.84,5.48A6.14,6.14,0,0,0,171,51.8h30.4V62.48H172.49a21,21,0,0,1-8.55-1.55,15.6,15.6,0,0,1-5.64-4.13A16.25,16.25,0,0,1,155.16,51a22.92,22.92,0,0,1-1-6.6,17.57,17.57,0,0,1,1.48-7,12.29,12.29,0,0,1,4.81-5.58,11.91,11.91,0,0,1-4.86-5.63,17.73,17.73,0,0,1-1.43-6.7,22.42,22.42,0,0,1,1.11-7.18,15.94,15.94,0,0,1,3.33-5.72,14.54,14.54,0,0,1,5.68-3.74,23.2,23.2,0,0,1,8.18-1.31h28.92Z"/><path class="cls-2" d="M263.06,96.81h1.52v1.45h-1.52Zm-4.26-7.62V87.85h1.32v1.34Zm-.1,9.07V89.89h1.5v8.37Zm-8.43-7V89.89h6.12v1.37h-2.31v7h-1.5v-7Zm-4.28,7-1,1.62h-1.41L245,98.26Zm-4.51-1.43,1.24-1a3.21,3.21,0,0,0,1,.94,2.61,2.61,0,0,0,1.26.3,2.29,2.29,0,0,0,1.29-.34,1,1,0,0,0,.49-.87c0-.56-.66-1-2-1.24l-.54-.11a3.88,3.88,0,0,1-1.88-.83,1.91,1.91,0,0,1-.58-1.47,2.31,2.31,0,0,1,.84-1.86,3.33,3.33,0,0,1,2.24-.72,4.55,4.55,0,0,1,1.91.37,3.56,3.56,0,0,1,1.39,1.12l-1.13.86a2.31,2.31,0,0,0-.91-.79,2.79,2.79,0,0,0-1.24-.27,2.05,2.05,0,0,0-1.16.29.87.87,0,0,0-.43.77q0,.85,2,1.23l.31.06a4.17,4.17,0,0,1,2.07.84,2.06,2.06,0,0,1,.64,1.6,2.47,2.47,0,0,1-.91,2,3.7,3.7,0,0,1-2.42.75,4.85,4.85,0,0,1-2.11-.43A3.35,3.35,0,0,1,241.48,96.83Zm-5.94,0h1.52v1.45h-1.52Zm-9.18,1.45V89.89h2.89A3.69,3.69,0,0,1,232.09,91a4.35,4.35,0,0,1,1,3.09,4.24,4.24,0,0,1-1,3.08,3.92,3.92,0,0,1-3,1.08Zm1.48-1.32h1.27a2.36,2.36,0,0,0,1.85-.71,3.11,3.11,0,0,0,.63-2.11,3.24,3.24,0,0,0-.63-2.18,2.29,2.29,0,0,0-1.87-.73h-1.25Zm-9.91-5.68V89.89h6.12v1.37h-2.31v7h-1.5v-7Zm-5.47,7V89.89H214v7h3.43v1.32Zm-6.58-1.45h1.52v1.45h-1.52ZM203.47,96a3.83,3.83,0,0,1-1.3,1.85,3.5,3.5,0,0,1-2.11.64,3.44,3.44,0,0,1-2.75-1.19,4.8,4.8,0,0,1-1-3.24,4.69,4.69,0,0,1,1-3.15,3.44,3.44,0,0,1,2.74-1.2,3.49,3.49,0,0,1,2.18.66,3.34,3.34,0,0,1,1.18,1.92l-1.4.37a2.22,2.22,0,0,0-.72-1.19,1.84,1.84,0,0,0-1.23-.44,1.94,1.94,0,0,0-1.61.84,3.53,3.53,0,0,0-.63,2.17,3.66,3.66,0,0,0,.63,2.25,2,2,0,0,0,1.66.84,1.82,1.82,0,0,0,1.22-.45,2.68,2.68,0,0,0,.78-1.25Zm-10.84-6.78V87.85H194v1.34Zm-.1,9.07V89.89H194v8.37Zm-8.43-7V89.89h6.12v1.37h-2.31v7h-1.5v-7ZM178,96.81h1.52v1.45H178Zm-9.31,1.45V89.89h1.42l3.31,5.46c.07.12.15.29.24.49a1.14,1.14,0,0,1,.07.21c0,.11.08.23.12.37l-.11-.64a2.93,2.93,0,0,1,0-.44V89.89h1.44v8.37h-1.38l-3.34-5.48-.11-.21-.13-.28-.07-.2c0-.11-.08-.23-.12-.37l.1.64,0,.44v5.46Zm-4.33-2.61-1.18-3.89-.07-.34L163,91v.16s0,.12,0,.24l-.07.34-1.16,3.91Zm2.35,2.61h-1.53l-.43-1.32h-3.38L161,98.26h-1.49l2.69-8.37h1.75Zm-15.62-1.43,1.24-1a3.21,3.21,0,0,0,1,.94,2.61,2.61,0,0,0,1.26.3,2.29,2.29,0,0,0,1.29-.34,1,1,0,0,0,.49-.87c0-.56-.66-1-2-1.24l-.55-.11a3.88,3.88,0,0,1-1.88-.83,1.91,1.91,0,0,1-.58-1.47,2.31,2.31,0,0,1,.84-1.86,3.33,3.33,0,0,1,2.24-.72,4.55,4.55,0,0,1,1.91.37,3.56,3.56,0,0,1,1.39,1.12l-1.13.86a2.31,2.31,0,0,0-.91-.79,2.77,2.77,0,0,0-1.23-.27,2.06,2.06,0,0,0-1.17.29.87.87,0,0,0-.43.77q0,.85,2,1.23l.31.06a4.17,4.17,0,0,1,2.07.84,2,2,0,0,1,.64,1.6,2.47,2.47,0,0,1-.91,2,3.7,3.7,0,0,1-2.42.75,4.88,4.88,0,0,1-2.11-.43A3.35,3.35,0,0,1,151.08,96.83Z"/><path class="cls-2" d="M255.4,82.87v-11h3.83a4.43,4.43,0,0,1,2.91.82,3,3,0,0,1,1,2.44,3.52,3.52,0,0,1-.53,2A3.24,3.24,0,0,1,261,78.34l2.54,4.53h-2.07l-2.34-4.28h-1.9v4.28ZM257.24,77h2a2.27,2.27,0,0,0,1.5-.44,1.58,1.58,0,0,0,.52-1.28,1.52,1.52,0,0,0-.48-1.23,2.28,2.28,0,0,0-1.47-.4h-2Zm-11.35,5.92v-11h7.17v1.7h-5.32V76.3h4.91V78h-4.91v3.18h5.53v1.71Zm-8,0v-11h1.88v9.25h4.29v1.73Zm-10.76,0v-11h1.77l4.15,7.16c.09.17.19.38.3.64,0,0,.05.13.09.28a4.77,4.77,0,0,1,.15.49l-.14-.84a5.41,5.41,0,0,1-.05-.58V71.89h1.8v11h-1.72l-4.18-7.2q-.08-.12-.15-.27c0-.1-.1-.22-.16-.36l-.09-.27a4,4,0,0,1-.14-.48l.12.83.05.58v7.17Zm-8.48-12V69.29h1.52v1.62Zm2.47,0V69.29h1.52v1.62ZM216.63,79V71.89h1.83v7a2.81,2.81,0,0,0,.54,1.89,2.55,2.55,0,0,0,3.33,0,2.75,2.75,0,0,0,.55-1.89v-7h1.83V79a4.24,4.24,0,0,1-1,3.1,5,5,0,0,1-6.06,0A4.25,4.25,0,0,1,216.63,79Zm-9.9,3.86v-11h3.82a4.46,4.46,0,0,1,2.92.82,3,3,0,0,1,1,2.44,3.52,3.52,0,0,1-.53,2,3.28,3.28,0,0,1-1.59,1.23l2.54,4.53H212.8l-2.33-4.28h-1.9v4.28ZM208.57,77h2a2.27,2.27,0,0,0,1.5-.44,1.58,1.58,0,0,0,.52-1.28,1.52,1.52,0,0,0-.48-1.23,2.3,2.3,0,0,0-1.47-.4h-2Zm-10.33-6V69.29h1.53v1.62Zm2.47,0V69.29h1.53v1.62ZM196.18,79V71.89H198v7a2.81,2.81,0,0,0,.54,1.89,2.55,2.55,0,0,0,3.33,0,2.75,2.75,0,0,0,.55-1.89v-7h1.83V79a4.28,4.28,0,0,1-1,3.1,5,5,0,0,1-6.07,0A4.25,4.25,0,0,1,196.18,79Zm-8.71-8V69.21h1.65V71Zm-.12,11.9v-11h1.88v11Zm-10.44-11h4.15a6.33,6.33,0,0,1,1.53.17,3.19,3.19,0,0,1,1.11.54,2.33,2.33,0,0,1,.7.87,3,3,0,0,1,.23,1.2,2.33,2.33,0,0,1-.36,1.32,2.21,2.21,0,0,1-1.06.82,2.57,2.57,0,0,1,1.44,1,2.84,2.84,0,0,1,.54,1.72,3.18,3.18,0,0,1-1,2.48,3.84,3.84,0,0,1-2.71.88h-4.61Zm1.83,1.67v2.66h2.41a1.66,1.66,0,0,0,1.13-.38,1.23,1.23,0,0,0,.44-1,1.14,1.14,0,0,0-.41-1,2,2,0,0,0-1.25-.32Zm0,4.28v3.33h2.72a1.81,1.81,0,0,0,1.29-.45,1.57,1.57,0,0,0,.48-1.19,1.67,1.67,0,0,0-.47-1.24,1.78,1.78,0,0,0-1.28-.45Zm-12.26-6h4.14a6.27,6.27,0,0,1,1.53.17,3.19,3.19,0,0,1,1.11.54,2.33,2.33,0,0,1,.7.87,2.79,2.79,0,0,1,.23,1.2,2.33,2.33,0,0,1-.36,1.32,2.16,2.16,0,0,1-1.06.82,2.51,2.51,0,0,1,1.44,1,2.85,2.85,0,0,1,.55,1.72,3.18,3.18,0,0,1-1,2.48,3.87,3.87,0,0,1-2.72.88h-4.6Zm1.83,1.67v2.66h2.41a1.7,1.7,0,0,0,1.13-.38,1.26,1.26,0,0,0,.44-1,1.16,1.16,0,0,0-.41-1,2,2,0,0,0-1.25-.32Zm0,4.28v3.33H171a1.8,1.8,0,0,0,1.28-.45,1.57,1.57,0,0,0,.48-1.19,1.67,1.67,0,0,0-.47-1.24,1.77,1.77,0,0,0-1.28-.45Zm-6.32,5v-11h1.87v11Zm-9.76-9.19V71.89h7.67v1.79H157v9.19h-1.88V73.68Z"/></g></g></svg>